<svg viewBox="0 0 24 24" xml:space="preserve" xmlns="http://www.w3.org/2000/svg"><path d="M21 12c0-4.249-2.963-7.811-6.93-8.75C13.119 1.33 12.44.258 12.42.229c-.094-.145-.26-.204-.427-.229a.501.501 0 0 0-.42.24 49.91 49.91 0 0 0-1.696 3.023C5.937 4.221 3 7.77 3 12c0 2.06.703 3.954 1.871 5.472-.75 3.604-.868 5.954-.87 6.007a.5.5 0 0 0 .894.328 90.01 90.01 0 0 1 3.094-3.762A8.93 8.93 0 0 0 12 21a8.941 8.941 0 0 0 5.186-1.657 48.002 48.002 0 0 1 1.867 3.38.5.5 0 0 0 .942-.297 66.464 66.464 0 0 0-.915-4.89A8.947 8.947 0 0 0 21 12zm-2 0a6.953 6.953 0 0 1-.598 2.82 65.273 65.273 0 0 0-3.143-9.01A7.004 7.004 0 0 1 19 12zM5 12a7.004 7.004 0 0 1 3.617-6.124 56.34 56.34 0 0 0-3.087 8.79A6.957 6.957 0 0 1 5 12zm7 7a6.956 6.956 0 0 1-2.617-.512C11.27 16.446 12.876 15 13.5 15c.544 0 1.525 1.093 2.602 2.66A6.954 6.954 0 0 1 12 19z" fill="#d66b0d" class="fill-303c42 fill-e37922 fill-f07a13"></path></svg>